<svg id="STL-icon-white" data-name="Layer 1" xmlns="http://www.w3.org/2000/svg" viewBox="0 0 170 224.71"><defs><style>.cls-1{fill:#fff;}</style></defs><path class="cls-1" d="M480.86,335c-1-9.34-4.89-20.6-17.11-25.12,0,0-20.78-8.43-42.15,10.77-.72.65-10.6,8.67-16.8,30.1,2.49-27.42,21.63-49.06,27-54.61l1.38-1.39s-5.2-35-12.4-54.4c-6.75-18.21-15.25-34.1-24.07-46.23-.77-1.08-1.38,0-1.38,0-8.83,12.13-17.33,28-24.09,46.27-7.2,19.42-12.4,54.4-12.4,54.4l1.38,1.39c5.36,5.54,24.5,27.18,27,54.61-6.2-21.44-16.08-29.45-16.8-30.1-21.37-19.2-42.15-10.77-42.15-10.77C316,314.44,312.14,325.7,311.14,335A24.6,24.6,0,0,0,333,362.12c.59.06.93.07.93.07s-5.82-30.14,17-25A42.92,42.92,0,0,1,378,355.79h-.35a7.43,7.43,0,1,0,0,14.85h.63a18.25,18.25,0,0,1-5.9,8.65c-9.87,7.83-18.44-6.09-18.44-6.09s-.18.15-.47.44a15.34,15.34,0,0,0,.19,21.84,16.62,16.62,0,0,0,2.33,1.91c7.79,5.32,18.38,3.47,24.72-3.51,2.6-2.86,4.85-9,6.24-15a15.56,15.56,0,0,1,.87,9.1,9.92,9.92,0,0,1-.89,2.66,55.46,55.46,0,0,1-8.16,12.07L396,418.36l17.19-15.66a55.82,55.82,0,0,1-8.07-11.88,11.79,11.79,0,0,1-1.08-3.44,15.22,15.22,0,0,1,.94-8.46c1.39,5.94,3.61,11.94,6.18,14.76,6.34,7,16.93,8.83,24.72,3.51a16.62,16.62,0,0,0,2.33-1.91,15.33,15.33,0,0,0,.18-21.84c-.29-.29-.46-.44-.46-.44s-8.57,13.92-18.44,6.09a18.24,18.24,0,0,1-5.85-8.49h.67a7.43,7.43,0,1,0,0-14.85H414a43,43,0,0,1,27.12-18.62c22.86-5.12,17,25,17,25l.93-.08A24.59,24.59,0,0,0,480.86,335Z" transform="translate(-311 -193.64)"/></svg>